<svg viewBox="0 0 18 18" xmlns="http://www.w3.org/2000/svg"><path d="m15.9787121 2.02127123h-.0002499c-1.1091251-1.04312515-2.6237505-1.63475034-4.2952509-1.85600038-1.0642501-.14108336-1.95866693-.1942917-2.6832504-.15962503-.72475012-.03466667-1.61916693.01854167-2.68325043.15962503-1.67162525.22125004-3.18612551.81287523-4.29525065 1.85600038h-.00024986c-1.04300023 1.10950017-1.63475036 2.62400043-1.85612539 4.29550075-.14108336 1.06416687-.19420837 1.95862516-.15937503 2.68337489-.03483334.72458346.01829167 1.61900023.15937503 2.68325043.22137503 1.6712502.81312516 3.1858756 1.85612539 4.2952509l.00024986.0002498c1.10912514 1.0430003 2.6236254 1.6347498 4.29525065 1.8562499 1.0640835.1409166 1.95850031.1940001 2.68325043.1592502.72458347.0347499 1.6190003-.0183336 2.6832504-.1592502 1.6715004-.2215001 3.1861258-.8132496 4.2952509-1.8562499l.0002499-.0002498c1.0433751-1.1093753 1.6347497-2.6240007 1.8563747-4.2952509.1409167-1.0642502.1940001-1.95866697.1592503-2.68325043.0347498-.72474973-.0183336-1.61920802-.1592503-2.68337489-.221625-1.67150032-.8129996-3.18600058-1.8563747-4.29550075z" fill="#ef2056"/><path d="m13.7390957 5.38574219c-.3070001-.29374999-.7370007-.5-1.5678759-.5h-6.79425082v.018875c-.55062509.05675001-.87325013.23912501-1.11525023.481125-.293625.29362511-.5.70512509-.5 1.5v4.00000001c0 .7948761.206375 1.2062514.5 1.5.2420001.2420015.56462514.4243763 1.11525023.4811263v.0188737h6.79425082c.8308752 0 1.2608758-.2063735 1.5678759-.5.307-.2937486.5226231-.7051239.5226231-1.5v-4.00000001c0-.79487491-.2156231-1.20637489-.5226231-1.5z" fill="#fff"/><path d="m7.01171875 8.88574255c0 1.03550016.83950019 1.87500035 1.87500036 1.87500035s1.87500039-.83950019 1.87500039-1.87500035c0-1.03550017-.83950022-1.87500036-1.87500039-1.87500036s-1.87500036.83950019-1.87500036 1.87500036z" fill="#c10037"/><path d="m11.0117188 6.88574219c0 .5522502.44775 1 1 1 .5522502 0 1-.4477498 1-1 0-.55224997-.4477498-1-1-1-.55225 0-1 .44775003-1 1z" fill="#ed2e53"/></svg>